<svg xmlns="http://www.w3.org/2000/svg" xmlns:xlink="http://www.w3.org/1999/xlink" viewBox="0 0 96 81" fill="#fff" fill-rule="evenodd" stroke="#000" stroke-linecap="round" stroke-linejoin="round"><use xlink:href="#A" x=".5" y=".5"/><symbol id="A" overflow="visible"><g fill="#2a3282" stroke="none"><path d="M39.603 49.8H7.421c-1.671 0-2.973-1.291-2.973-2.948V13.838h9.288V4.799h59.697c1.671 0 2.973 1.291 2.973 2.948v.366c1.497.366 3.168 1.098 4.644 1.657V7.554C81.05 3.486 77.708 0 73.433 0H11.154L0 11.256v35.596c0 4.068 3.342 7.554 7.617 7.554h34.959a17.06 17.06 0 0 1-2.973-4.605zm40.312 8.076l11.154 16.593-10.416-2.776L77.68 80 66.526 65.237 58.15 80l-3.906-8.845-10.416 2.776 10.221-17.518s2.799 4.799 12.825 4.799c10.242-.021 13.042-3.336 13.042-3.336z"/><path d="M67.733 54.811c-9.852 0-17.859-7.92-17.859-17.518s7.986-17.518 17.859-17.518 17.859 7.92 17.859 17.518c-.174 9.598-7.986 17.518-17.859 17.518zm0-31.162c-7.617 0-13.953 6.09-13.953 13.644s6.315 13.644 13.953 13.644 13.953-6.09 13.953-13.644-6.315-13.644-13.953-13.644zm-.075 40.471c-15.06 0-27.342-11.987-27.342-26.751s12.282-26.751 27.342-26.751S95 22.606 95 37.37c0 14.57-12.282 26.751-27.342 26.751zm0-49.606c-12.825 0-23.436 10.33-23.436 22.877s10.416 22.877 23.436 22.877 23.436-10.33 23.436-22.877c0-12.74-10.416-22.877-23.436-22.877z"/></g></symbol></svg>